<svg xmlns="http://www.w3.org/2000/svg" viewBox="0 0 23 23"><path d="M1 1h7v7h-7zM10 1h4v1h-2v2h-2v-1h1v-1h-1zM15 1h7v7h-7zM2 2v5h5v-5zM9 2h1v1h-1zM16 2v5h5v-5zM3 3h3v3h-3zM13 3h1v1h-1zM17 3h3v3h-3zM12 4h1v1h-1zM9 5h1v1h-1zM11 5h1v3h1v-3h1v4h-1v1h-1v-1h-1zM9 7h1v1h-1zM1 9h1v1h-1zM3 9h1v1h-1zM5 9h1v1h-1zM7 9h1v1h-1zM10 9h1v1h-1zM17 9h1v1h-1zM20 9h1v1h1v8h-1v1h-2v-1h1v-1h1v-1h-2v-1h2v-3h-4v-1h1v-1h1v1h1zM2 10h1v1h-1zM6 10h1v1h-1zM9 10h1v4h1v2h-1v-1h-1v-2h-1v-1h-1v-1h2zM11 10h1v1h-1zM15 10h2v1h-2zM1 11h1v2h-1zM3 11h3v1h-3zM13 11h1v1h-1zM6 12h1v1h1v1h-2zM11 12h1v1h-1zM15 12h2v1h2v2h-1v1h-1v1h-1v-1h-1v1h1v2h-1v-1h-1v-1h-1v1h-1v-1h-1v-1h1v-2h1v2h1v-2h1v1h2v-1h-2zM13 13h1v1h-1zM1 15h7v7h-7zM2 16v5h5v-5zM3 17h3v3h-3zM9 17h2v1h1v3h-1v-2h-1v-1h-1zM17 17h1v2h1v2h-2v1h-2v-2h1v-1h1zM9 19h1v1h-1zM13 19h1v1h-1zM21 19h1v1h-1zM20 20h1v1h1v1h-2zM9 21h1v1h-1zM13 21h1v1h-1z"/></svg>